# xmcd
#
# Track frame offsets:
#	150
#	13545
#	26872
#	43392
#	58782
#	76505
#	93237
#	109537
#	125995
#	146937
#	163397
#
# Disc length: 2568 seconds
# Revision: 8
# Processed by: cddbd v1.5.2PL0 Copyright (c) Steve Scherf et al.
# Submitted via: dBpowerAMP V12.0
#
DISCID=9a0a060b
DTITLE=Brooks and Dunn - Hard Workin' Man [CDA]
DYEAR=1993
DGENRE=Country*
TTITLE0=Hard Workin' Man
TTITLE1=We'll Burn That Bridge
TTITLE2=Mexican Minutes
TTITLE3=Heartbroke Out Of My Mind
TTITLE4=She Used To Be Mine
TTITLE5=Rock My World {Little Country Girl}
TTITLE6=That Ain't No Way To Go
TTITLE7=Texas Women {Don't Stay Lonely Long}
TTITLE8=Our Time Is Coming
TTITLE9=I Can't Put Out This Fire
TTITLE10=Boot Scootin' Boogie (Club Mix)
EXTD=
EXTT0=
EXTT1=
EXTT2=
EXTT3=
EXTT4=
EXTT5=
EXTT6=
EXTT7=
EXTT8=
EXTT9=
EXTT10=
PLAYORDER=
